<!DOCTYPE svg PUBLIC "-//W3C//DTD SVG 1.1//EN" "http://www.w3.org/Graphics/SVG/1.1/DTD/svg11.dtd">
<!-- Uploaded to: SVG Repo, www.svgrepo.com, Transformed by: SVG Repo Mixer Tools -->
<svg fill="#a2c3a2" height="800px" width="800px" version="1.1" id="Layer_1" xmlns="http://www.w3.org/2000/svg" xmlns:xlink="http://www.w3.org/1999/xlink" viewBox="0 0 512 512" xml:space="preserve">
<g id="SVGRepo_bgCarrier" stroke-width="0"/>
<g id="SVGRepo_tracerCarrier" stroke-linecap="round" stroke-linejoin="round"/>
<g id="SVGRepo_iconCarrier"> <g> <g> <path d="M299.603,246.93c-5.632,0-10.199,4.566-10.199,10.199v4.515c0,5.633,4.567,10.199,10.199,10.199 c5.632,0,10.199-4.566,10.199-10.199v-4.515C309.802,251.496,305.235,246.93,299.603,246.93z"/> </g> </g> <g> <g> <path d="M427.584,491.602h-16.052V66.28c0-36.547-30.001-66.28-66.876-66.28H167.343c-36.711,0-66.578,29.733-66.578,66.28 v425.322H84.415c-5.632,0-10.199,4.566-10.199,10.199c0,5.633,4.567,10.199,10.199,10.199h52.502 c5.632,0,10.199-4.566,10.199-10.199c0-5.633-4.567-10.199-10.199-10.199h-15.754V76.479h81.034v227.619 c-2.84,4.926-4.474,10.632-4.474,16.716v23.325h-6.971c-5.632,0-10.199,4.566-10.199,10.199c0,5.633,4.567,10.199,10.199,10.199 h6.971v28.217c-11.395,3.855-19.622,14.642-19.622,27.322c0,15.904,12.939,28.841,28.84,28.841h98.117 c15.903,0,28.84-12.939,28.84-28.841c0-12.68-8.229-23.466-19.622-27.322v-28.217h6.971c5.632,0,10.199-4.566,10.199-10.199 c0-5.633-4.567-10.199-10.199-10.199h-6.971v-23.325c0-18.518-15.065-33.584-33.584-33.584h-49.387 c-3.013,0-5.931,0.405-8.711,1.153V76.479h66.809v144.527c0,5.633,4.567,10.199,10.199,10.199c5.632,0,10.199-4.566,10.199-10.199 V76.479h81.331v415.123h-16.052c-5.632,0-10.199,4.566-10.199,10.199c0,5.633,4.567,10.199,10.199,10.199h52.502 c5.632,0,10.199-4.566,10.199-10.199C437.784,496.168,433.217,491.602,427.584,491.602z M305.059,411.632 c4.655,0,8.442,3.787,8.442,8.443s-3.787,8.443-8.442,8.443h-98.117c-4.655,0-8.442-3.788-8.442-8.443s3.787-8.443,8.442-8.443 h0.981h96.155H305.059z M231.307,307.627h49.386c7.27,0,13.186,5.915,13.186,13.186v70.42h-75.757v-70.42 C218.122,313.543,224.037,307.627,231.307,307.627z M309.802,56.08v-6.505c0-5.633-4.567-10.199-10.199-10.199 c-5.632,0-10.199,4.566-10.199,10.199v6.505h-66.809v-6.505c0-5.633-4.567-10.199-10.199-10.199 c-5.632,0-10.199,4.566-10.199,10.199v6.505h-79.883c4.679-20.408,23.092-35.682,45.029-35.682h177.313 c22.078,0,40.611,15.274,45.321,35.682H309.802z"/> </g> </g> </g>
</svg>